<svg xmlns="http://www.w3.org/2000/svg" viewBox="0 0 24 24" fill="#EE4C2C">
  <path d="M12.9 16.5l-1.6-3.2c-.3-.6-.5-1.3-.5-2 0-1.8 1.5-3.3 3.3-3.3 1.8 0 3.3 1.5 3.3 3.3 0 .7-.2 1.4-.5 2l-1.6 3.2c-.2.4-.6.7-1.1.7s-.9-.3-1.1-.7zm-4.2-2.1l1.6-3.2c.3-.6.5-1.3.5-2 0-1.8-1.5-3.3-3.3-3.3-1.8 0-3.3 1.5-3.3 3.3 0 .7.2 1.4.5 2l1.6 3.2c.2.4.6.7 1.1.7s.9-.3 1.1-.7zM12 0C5.4 0 0 5.4 0 12s5.4 12 12 12 12-5.4 12-12S18.6 0 12 0zm0 21.8c-5.4 0-9.8-4.4-9.8-9.8S6.6 2.2 12 2.2s9.8 4.4 9.8 9.8-4.4 9.8-9.8 9.8z"/>
  <path d="M11.5 13.2h1v3.5h-1z"/>
  <path d="M11.5 7.3h1v3.5h-1z"/>
</svg>
